<svg width="242" height="576" viewBox="0 0 242 576" fill="none" xmlns="http://www.w3.org/2000/svg">
<g clip-path="url(#clip0_412_7)">
<path d="M178.311 68.2465L83.3442 79.4318L93.9509 169.487L188.918 158.302L178.311 68.2465Z" fill="#2F2E41"/>
<path d="M129.773 120.158C155.523 120.158 176.397 99.2842 176.397 73.5345C176.397 47.7848 155.523 26.9105 129.773 26.9105C104.023 26.9105 83.1492 47.7848 83.1492 73.5345C83.1492 99.2842 104.023 120.158 129.773 120.158Z" fill="#FFDCDC"/>
<path d="M99.0333 1.22033C69.9786 9.2864 72.6846 20.117 63.881 26.9416C48.3709 38.9651 45.2047 68.7834 56.2787 86.9096C59.2376 91.7527 65.0272 98.1531 63.5051 105.979C62.3365 111.987 57.4043 116.031 56.4754 116.768C48.872 122.796 53.5185 116.143 50.3116 120.814C46.7719 125.97 53.8859 131.827 50.9883 140.655C48.4197 148.482 41.2489 148.691 40.8767 153.467C40.2358 161.69 60.3582 175.701 79.5986 172.147C96.7296 168.982 107.836 152.876 110.512 138.625C112.305 129.078 111.68 113.094 103.38 106.263C102.216 105.305 99.0738 103.023 95.8666 98.8477C93.3286 95.5434 89.9873 91.1938 91.2419 87.7719C92.5783 84.1263 97.7296 85.3555 100.487 81.7026C104.228 76.7488 98.2751 69.8245 98.1733 62.0542C98.0012 48.8968 114.576 31.0954 134.384 31.228C156.856 31.3783 167.816 54.5037 168.966 57.0364C171.35 62.2859 171.937 67.567 173.11 78.1293C174.795 93.287 175.85 102.787 172.248 113.093C167.067 127.914 158.185 127.425 156.937 138.137C154.991 154.838 175.069 169.017 177.36 170.593C194.347 182.277 218.079 183.596 221.282 177.041C224.168 171.133 207.653 164.418 206.156 147.281C204.859 132.43 216.304 126.508 212.509 116.651C208.332 105.801 193.377 110.149 185.442 98.2579C178.035 87.1583 188.35 79.3011 183.702 55.3008C182.719 50.2238 179.379 35.7136 168.191 22.266C163.262 16.3416 158.249 10.3163 149.889 7.82089C140.53 5.02732 114.402 -3.04631 99.0333 1.22033Z" fill="#2F2E41"/>
<path d="M84.2065 44.4685C86.602 54.4661 102.413 57.6418 109.058 58.1422C111.873 58.3543 121.384 59.0704 130.151 53.9979C133.391 52.1229 134.478 50.6444 137.952 49.7589C142.655 48.5601 145.276 50.0938 153.074 51.2979C161.745 52.6369 166.081 53.3065 168.003 51.1996C171.146 47.7557 167.289 38.1545 162.414 31.937C153.4 20.4404 139.119 18.2338 132.458 17.2044C124.848 16.0285 109.405 13.6421 96.6286 23.0845C94.9204 24.3469 81.7728 34.3108 84.2065 44.4685Z" fill="#2F2E41"/>
<path d="M184.348 567.021C161.228 572.629 137.075 575.594 112.234 575.594C85.3269 575.594 59.2196 572.118 34.3671 565.567C31.6576 555.539 28.5815 544.434 25.0947 532.152C-6.18746 421.871 57.1874 343.682 57.1874 343.682L72.8229 331.345L213.565 350.267C229.944 430.122 219.284 489.377 184.348 567.021Z" fill="#2F2E41"/>
<path d="M161.422 132.995L95.5813 126.411L47.8467 167.562L62.6609 315.704L56.0768 343.686L212.449 350.27L204.219 310.766L215.741 165.916L161.422 132.995Z" fill="#0466C8"/>
<path d="M182.821 210.358H77.4751V374.961H182.821V210.358Z" fill="white"/>
<path d="M167.788 232.013H138.353C137.557 232.013 136.909 231.366 136.909 230.569C136.909 229.773 137.557 229.126 138.353 229.126H167.788C168.585 229.126 169.232 229.773 169.232 230.569C169.232 231.366 168.585 232.013 167.788 232.013Z" fill="#0466C8"/>
<path d="M167.788 243.118H138.353C137.557 243.118 136.909 242.47 136.909 241.674C136.909 240.878 137.557 240.23 138.353 240.23H167.788C168.585 240.23 169.232 240.878 169.232 241.674C169.232 242.47 168.585 243.118 167.788 243.118Z" fill="#0466C8"/>
<path d="M167.788 254.223H138.353C137.557 254.223 136.909 253.575 136.909 252.779C136.909 251.983 137.557 251.335 138.353 251.335H167.788C168.585 251.335 169.232 251.983 169.232 252.779C169.232 253.575 168.585 254.223 167.788 254.223Z" fill="#0466C8"/>
<path d="M166.467 293.089H94.8908C92.9549 293.089 91.3799 291.514 91.3799 289.579C91.3799 287.643 92.9549 286.068 94.8908 286.068H166.467C168.403 286.068 169.978 287.643 169.978 289.579C169.978 291.514 168.403 293.089 166.467 293.089Z" fill="#E6E6E6"/>
<path d="M126.201 357.02C140.443 361.484 154.289 357.754 157.129 348.69C159.968 339.626 150.724 328.663 136.477 324.2C130.811 322.339 124.781 321.862 118.892 322.809L58.3115 304.659L19.8643 332.164L110.962 348.125C115.258 352.264 120.484 355.315 126.201 357.02Z" fill="#FFDCDC"/>
<path d="M54.0512 164.27C54.0512 164.27 31.9792 176.882 25.6729 203.684L0.447783 310.891C0.447783 310.891 -4.28193 326.657 17.0018 334.539C38.2855 342.422 64.2989 308.526 64.2989 308.526L52.4187 296.646L75.3349 196.59L54.0512 164.27Z" fill="#0466C8"/>
<path d="M109.781 341.175C94.9758 343.058 82.0035 336.945 80.8069 327.522C79.6103 318.1 90.6416 308.938 105.452 307.057C111.358 306.224 117.378 306.818 123.007 308.788L185.839 301.604L218.835 335.456L126.35 335.105C121.391 338.423 115.71 340.504 109.781 341.175Z" fill="#FFDCDC"/>
<path d="M214.784 164.164C214.784 164.164 234.287 180.471 235.769 207.965L241.698 317.939C241.698 317.939 243.574 334.292 221.233 338.299C198.893 342.306 179.264 304.354 179.264 304.354L193.052 294.755L188.136 192.225L214.784 164.164Z" fill="#0466C8"/>
<path d="M126.856 221.881H88.9973V267.969H126.856V221.881Z" fill="#0466C8"/>
<path d="M99.1039 256.282L96.5032 267.673L96.4374 267.969H89.0303C89.9191 264.216 91.0219 259.574 91.5322 257.352C92.1741 254.653 93.8531 252.908 94.923 252.036C95.4662 251.558 95.8612 251.344 95.8612 251.344L99.1039 256.282Z" fill="#E6E6E6"/>
<path d="M124.107 267.969H116.897L116.305 255.607L120.255 251.443L120.37 251.328C120.37 251.328 123.35 253.813 123.564 258.011C123.679 260.101 123.909 264.298 124.107 267.969Z" fill="#E6E6E6"/>
<path d="M114.759 236.697L101.882 238.213L103.32 250.424L116.197 248.908L114.759 236.697Z" fill="#2F2E41"/>
<path d="M108.177 243.736C111.669 243.736 114.499 240.905 114.499 237.414C114.499 233.922 111.669 231.092 108.177 231.092C104.685 231.092 101.855 233.922 101.855 237.414C101.855 240.905 104.685 243.736 108.177 243.736Z" fill="#FFDCDC"/>
<path d="M104.009 227.608C100.069 228.702 100.436 230.17 99.2424 231.096C97.1393 232.726 96.71 236.769 98.2116 239.227C98.6128 239.884 99.3978 240.752 99.1914 241.813C99.033 242.628 98.3642 243.176 98.2382 243.276C97.2072 244.093 97.8373 243.191 97.4024 243.824C96.9225 244.524 97.8871 245.318 97.4942 246.515C97.1459 247.576 96.1736 247.605 96.1231 248.252C96.0362 249.367 98.7647 251.267 101.374 250.785C103.697 250.356 105.202 248.172 105.565 246.24C105.808 244.945 105.724 242.778 104.598 241.851C104.44 241.722 104.014 241.412 103.579 240.846C103.235 240.398 102.782 239.808 102.952 239.344C103.134 238.85 103.832 239.016 104.206 238.521C104.713 237.849 103.906 236.911 103.892 235.857C103.869 234.073 106.116 231.659 108.802 231.677C111.849 231.697 113.335 234.833 113.491 235.177C113.815 235.888 113.894 236.604 114.053 238.037C114.282 240.092 114.425 241.38 113.936 242.777C113.234 244.787 112.03 244.721 111.86 246.173C111.596 248.438 114.319 250.361 114.63 250.574C116.933 252.159 120.151 252.337 120.585 251.449C120.976 250.647 118.737 249.737 118.534 247.413C118.358 245.399 119.91 244.597 119.396 243.26C118.829 241.789 116.801 242.378 115.725 240.766C114.721 239.261 116.12 238.195 115.49 234.941C115.356 234.253 114.903 232.285 113.386 230.462C112.718 229.658 112.038 228.841 110.905 228.503C109.636 228.124 106.093 227.03 104.009 227.608Z" fill="#2F2E41"/>
<path d="M101.998 233.472C102.323 234.828 104.467 235.259 105.368 235.326C105.75 235.355 107.039 235.452 108.228 234.764C108.668 234.51 108.815 234.31 109.286 234.19C109.924 234.027 110.279 234.235 111.336 234.398C112.512 234.58 113.1 234.671 113.361 234.385C113.787 233.918 113.264 232.616 112.603 231.773C111.381 230.214 109.444 229.915 108.541 229.775C107.509 229.616 105.415 229.292 103.683 230.573C103.451 230.744 101.668 232.095 101.998 233.472Z" fill="#2F2E41"/>
<path d="M120.519 251.608L119.218 267.969H96.5196L96.5031 267.673L94.9229 252.036L94.9065 251.855L99.7129 247.723L101.194 246.439L102.198 245.583L104.783 245.847L112.223 246.587H112.239L114.741 248.102L118.477 250.373L120.255 251.443L120.519 251.608Z" fill="#E6E6E6"/>
</g>
<defs>
<clipPath id="clip0_412_7">
<rect width="242" height="576" fill="white"/>
</clipPath>
</defs>
</svg>
